PathFileType	4	(X/Y/Z)	/Users/niels/Desktop/University/Third Semester/Perception and Action/Exam/Gymnastics Motion Tracking/Code for Gym Tracking/Analyzed Data/Webcam_Backflip/id7_3_trajectory_Sports2D/id7_3_trajectory_Sports2D_px_person00.trc
DataRate	CameraRate	NumFrames	NumMarkers	Units	OrigDataRate	OrigDataStartFrame	OrigNumFrames
29.8125	29.8125	10	22	m	29.8125	140	160
Frame#	Time	Hip			RHip			RKnee			RAnkle			RBigToe			RSmallToe			RHeel			LHip			LKnee			LAnkle			LBigToe			LSmallToe			LHeel			Neck			Head			Nose			RShoulder			RElbow			RWrist			LShoulder			LElbow			LWrist		
		X1	Y1	Z1	X2	Y2	Z2	X3	Y3	Z3	X4	Y4	Z4	X5	Y5	Z5	X6	Y6	Z6	X7	Y7	Z7	X8	Y8	Z8	X9	Y9	Z9	X10	Y10	Z10	X11	Y11	Z11	X12	Y12	Z12	X13	Y13	Z13	X14	Y14	Z14	X15	Y15	Z15	X16	Y16	Z16	X17	Y17	Z17	X18	Y18	Z18	X19	Y19	Z19	X20	Y20	Z20	X21	Y21	Z21	X22	Y22	Z22
140	4.696016771488469	1.2807670804605609	-0.5374630434085781	0.0	1.2461055077436187	-0.5369024490488329	0.0	1.2413689990009769	-0.6977695860434534	0.0	1.2809129661777516	-0.8324073506936368	0.0	1.2540906540959553	-0.8666552718742776	0.0	1.2454752756375038	-0.8609055237041396	0.0	1.2934331293880363	-0.8513278439878865	0.0	1.3178608396205354	-0.5383333569972066	0.0	1.2912774018660629	-0.6954827197874411	0.0	1.3287073827747204	-0.8170347175817311	0.0	1.3254151188670231	-0.8637193096414475	0.0	1.3466776674876717	-0.8564518183615853	0.0	1.3336076909189702	-0.830283678098177	0.0	1.28798840536358	-0.3280543620199927	0.0	1.285978638038962	-0.23185305594835573	0.0	1.2840937899420164	-0.2863226201037716	0.0	1.230064817723321	-0.369121131726445	0.0	1.1964583471212251	-0.4557676612332477	0.0	1.1391185966854518	-0.5259025079567144	0.0	1.3489637716851737	-0.3576973012859124	0.0	1.3803249403248565	-0.4534749026782382	0.0	1.4091460308982457	-0.5031586575960405	0.0
141	4.729559748427672	1.2771644738467143	-0.5356710390951535	0.0	1.242502097470944	-0.5359754124865517	0.0	1.240188543610844	-0.6972271995509511	0.0	1.2807084913377316	-0.830669455030577	0.0	1.253367827745122	-0.8665025901601552	0.0	1.2462212673114645	-0.8603746078160799	0.0	1.2925207942434707	-0.8506906660415801	0.0	1.314099830893989	-0.5364301991936639	0.0	1.2858897690258524	-0.6924410113636835	0.0	1.3213303667518361	-0.8161397233662042	0.0	1.3168209104571813	-0.8655216178647566	0.0	1.3384496836573108	-0.8588666020649154	0.0	1.3265257567501934	-0.8301776689116824	0.0	1.2835765008233746	-0.32308620541932337	0.0	1.282383188318558	-0.22724000438571185	0.0	1.2804964660867162	-0.2816737514289398	0.0	1.2253781715477288	-0.36675483999151615	0.0	1.2009405395063204	-0.46001011292176464	0.0	1.1563748629367647	-0.5414092025418945	0.0	1.3447641965957735	-0.3529073399616966	0.0	1.3715261796380835	-0.4516432294165349	0.0	1.394561567315641	-0.5227320779649358	0.0
142	4.763102725366876	1.274166389026885	-0.532626814689292	0.0	1.2395172905849408	-0.5339061432138542	0.0	1.2402925841716366	-0.6958284774130021	0.0	1.2800313130088952	-0.8291967515977816	0.0	1.2526155108978498	-0.8670030238516119	0.0	1.2466875438915759	-0.8605531518989021	0.0	1.2907059857602239	-0.8506334130837326	0.0	1.3108153848153974	-0.5332698874400393	0.0	1.2820428498891228	-0.6888228348033018	0.0	1.3131369406159654	-0.8190921787767776	0.0	1.3058281401002982	-0.8701463635343238	0.0	1.3281595781896132	-0.8647890613530701	0.0	1.3185801227229497	-0.8344663572967174	0.0	1.279187497513499	-0.3167618551233955	0.0	1.2782196064922344	-0.22085825915742813	0.0	1.276387724037467	-0.27528426216640356	0.0	1.2208509145635762	-0.3620547849857683	0.0	1.2040236853247366	-0.4592973787803691	0.0	1.1730150068187999	-0.5453709754200532	0.0	1.3406586856351126	-0.34644052166835937	0.0	1.3641907073141826	-0.4473257205254145	0.0	1.3798286392544525	-0.5332843510960892	0.0
143	4.796645702306079	1.2717037279811907	-0.5292096564681652	0.0	1.237062491501768	-0.5313965157704846	0.0	1.2414244601159332	-0.694688401589454	0.0	1.2789948485318225	-0.8285840516483496	0.0	1.2518990077772698	-0.8687567945944197	0.0	1.2469023378337736	-0.8620959481327417	0.0	1.288315760104299	-0.8516050987149771	0.0	1.3080640113285436	-0.5297672217632281	0.0	1.279466467358691	-0.6859845166696892	0.0	1.3047080788543393	-0.8258044973809887	0.0	1.2933901837925432	-0.877508491851904	0.0	1.3167440894287787	-0.8737236522854964	0.0	1.3102379368594816	-0.8428165310956806	0.0	1.2749366987441744	-0.31039060480441516	0.0	1.273695850898636	-0.21391288963048583	0.0	1.271953011921179	-0.2683802634028557	0.0	1.2165944150659609	-0.35619272450149086	0.0	1.205048487255426	-0.4550500322687121	0.0	1.1882506807752569	-0.5387105159973082	0.0	1.336823657002309	-0.3397675412100861	0.0	1.3580466895952303	-0.44195070870056324	0.0	1.3659710113579082	-0.5361111631471535	0.0
144	4.830188679245282	1.2695806437373904	-0.5260574031453945	0.0	1.2349096423335446	-0.5289029131757308	0.0	1.2431613731246334	-0.6947465602034072	0.0	1.277721530335996	-0.829171792759638	0.0	1.2511903632907841	-0.872268496941938	0.0	1.2468864937235995	-0.8655585941224345	0.0	1.2858179768189297	-0.8537816227842581	0.0	1.3057171106756014	-0.5265718824429738	0.0	1.2778181635576316	-0.6849493790287187	0.0	1.296549798516774	-0.8351671372745261	0.0	1.2806573440897138	-0.8866977999627649	0.0	1.305258685735487	-0.8842908773439176	0.0	1.3018209637472244	-0.853805460571375	0.0	1.2708741040842977	-0.30488271628102903	0.0	1.2689807136624898	-0.2074635566588722	0.0	1.2674221662942473	-0.26195731944751993	0.0	1.2126148899058298	-0.35027364790273613	0.0	1.2038062749000495	-0.4490475706051752	0.0	1.2017342571756495	-0.5236317269946165	0.0	1.333355140808037	-0.3338981731695477	0.0	1.3529549243847871	-0.436700341299182	0.0	1.3538130440790663	-0.5336842657269542	0.0
145	4.863731656184486	1.26752031462007	-0.5236628578578197	0.0	1.2327776469265808	-0.5267915673762438	0.0	1.2450250712531956	-0.6964884166616021	0.0	1.276398956823421	-0.8309979917131307	0.0	1.2503374066699133	-0.8777111499511474	0.0	1.2466449555840917	-0.8711654335626697	0.0	1.2837195791443115	-0.8570898654474727	0.0	1.3034740709193733	-0.5241352419850821	0.0	1.2767746945848735	-0.6862188974055673	0.0	1.2890363815411803	-0.8458095012384715	0.0	1.2686827791399116	-0.8964038652189737	0.0	1.2945646207130785	-0.8948778222421199	0.0	1.293617713188683	-0.8658037568759293	0.0	1.2669809135156547	-0.30076974085730096	0.0	1.2642071290471628	-0.20232603504701477	0.0	1.262995160567208	-0.2567275953858887	0.0	1.2088689266433637	-0.3452073235477315	0.0	1.2005520439690305	-0.4430432801882296	0.0	1.2133061670984886	-0.503309769491127	0.0	1.3302427351657165	-0.32943180318393467	0.0	1.3488838266802587	-0.4324707322740778	0.0	1.3439362252406353	-0.5289003286919048	0.0
146	4.897274633123689	1.2652808456425864	-0.5224114768112156	0.0	1.2304428987647642	-0.5254803052204055	0.0	1.2465928234154837	-0.6998353789985818	0.0	1.2752650979075584	-0.8335928340359938	0.0	1.2492091573613076	-0.8844603861289342	0.0	1.2462498825789827	-0.8782866147975749	0.0	1.2823693285750886	-0.8609510225991953	0.0	1.3010643858298743	-0.5228132761279101	0.0	1.2760641738542178	-0.6897071614476115	0.0	1.2824376035863982	-0.8565968256002372	0.0	1.2581918911973333	-0.9054694813269493	0.0	1.2852194654383262	-0.9043005249569842	0.0	1.2860401091809515	-0.8774945420968335	0.0	1.263223191393229	-0.29820659580324443	0.0	1.2595185122331463	-0.19890262468030248	0.0	1.2587941623665606	-0.2530449699209193	0.0	1.2052903372679717	-0.3415491221714991	0.0	1.1958817161781516	-0.43832142924175727	0.0	1.2227096717966026	-0.48150795555886183	0.0	1.3273980445052138	-0.32664991106268976	0.0	1.3457263403860378	-0.42982910961287046	0.0	1.336679605591822	-0.5244568409982886	0.0
147	4.930817610062892	1.2627857067114525	-0.5225380190670794	0.0	1.227820680381955	-0.5253776173079644	0.0	1.2474837370883047	-0.7043208828473771	0.0	1.2745014349811172	-0.8359361373490448	0.0	1.2479503949620807	-0.8910386784777766	0.0	1.2459216995038618	-0.8852704071794056	0.0	1.2818153253571216	-0.8640715346975272	0.0	1.2984508851884815	-0.5228846239930027	0.0	1.2755144365161153	-0.6948819263325366	0.0	1.276953045034239	-0.8667672623093564	0.0	1.2495854230268206	-0.9133258788931471	0.0	1.277556317764364	-0.9121502012011088	0.0	1.2796124652776963	-0.8879745112741378	0.0	1.259612837823455	-0.2969887056877293	0.0	1.2550823634218518	-0.1970860392313181	0.0	1.2548885892172752	-0.2508783794451206	0.0	1.2017871368878856	-0.33942855123760524	0.0	1.1905385953506706	-0.43547276184946954	0.0	1.2294725728647737	-0.4619775421515958	0.0	1.3247212888731603	-0.3255652036021996	0.0	1.3431790995930957	-0.4290689768647673	0.0	1.3321231279146337	-0.5223626372891195	0.0
148	4.964360587002096	1.2601385460162449	-0.5240112769277595	0.0	1.2249529177011216	-0.5266425992754309	0.0	1.247254727977604	-0.709315476350567	0.0	1.2741066883782843	-0.8368017178327314	0.0	1.2470940203759802	-0.8958232587477944	0.0	1.2459414599705034	-0.8901340846690113	0.0	1.2818010993154887	-0.8647360095837128	0.0	1.29581547224756	-0.5243925110347399	0.0	1.2750922681787353	-0.7009445325252882	0.0	1.2727143882830674	-0.875850546094543	0.0	1.2430943182800538	-0.9199461874021511	0.0	1.271789132528096	-0.9186152475256516	0.0	1.2747971848689439	-0.8967363075432934	0.0	1.256199763294909	-0.2966563843924544	0.0	1.2510458391729378	-0.1963377325758324	0.0	1.2513237161761703	-0.24987387741724135	0.0	1.1982567796697752	-0.3385793043042189	0.0	1.1851870160185205	-0.43448195136174983	0.0	1.2330259260286753	-0.4477505586990731	0.0	1.3221692213101508	-0.3258925471782834	0.0	1.3408100781354706	-0.4302362972027141	0.0	1.330143834124943	-0.5236216229643273	0.0
149	4.997903563941299	1.2574927779963954	-0.5264297325197672	0.0	1.2219480079560345	-0.5290045899856889	0.0	1.245349164515025	-0.7141395596571052	0.0	1.2738444857484827	-0.8352043445849795	0.0	1.2472076375644023	-0.8978170297003971	0.0	1.2463872803180265	-0.8915230142193258	0.0	1.2818876397730001	-0.86147409447172	0.0	1.2933766460745697	-0.5269664963166376	0.0	1.2748422171533793	-0.7069558335309891	0.0	1.2697594837400026	-0.8834962264333687	0.0	1.2387512440606567	-0.9254175244238729	0.0	1.2679515949334141	-0.923983258528482	0.0	1.2717997087068618	-0.9035701873328105	0.0	1.2530121923585964	-0.2966141603947932	0.0	1.2475062509663641	-0.19586876338916173	0.0	1.248108650818407	-0.24942957432920548	0.0	1.1946165561030777	-0.33846471913108994	0.0	1.1802744508502452	-0.434955562453368	0.0	1.2329721805575244	-0.44067019902972854	0.0	1.319760585338511	-0.32703011022889006	0.0	1.3382252082419668	-0.4330264764464747	0.0	1.3304891289987448	-0.5281461657365634	0.0
